<?xml version="1.0" encoding="UTF-8"?>
<svg xmlns="http://www.w3.org/2000/svg" xmlns:xlink="http://www.w3.org/1999/xlink" width="22px" height="22px" viewBox="0 0 22 22" version="1.1">
<g id="surface1">
<path style=" stroke:none;fill-rule:nonzero;fill:rgb(0%,0%,0%);fill-opacity:1;" d="M 21.410156 3.59375 C 21.265625 3.300781 21.042969 3.015625 20.585938 3.082031 C 20.214844 3.136719 19.886719 3.242188 19.300781 2.882812 C 17.578125 1.425781 14.507812 0.453125 11 0.453125 C 7.492188 0.453125 4.417969 1.425781 2.695312 2.882812 C 2.113281 3.242188 1.785156 3.136719 1.414062 3.082031 C 0.957031 3.015625 0.734375 3.300781 0.589844 3.59375 C 0.386719 4.003906 -0.445312 5.457031 0.316406 6.0625 C 0.90625 6.539062 1.195312 6.832031 1.335938 7.007812 C 1.945312 11.175781 5.402344 15.457031 11 15.457031 C 16.597656 15.457031 20.054688 11.175781 20.664062 7.007812 C 20.804688 6.832031 21.09375 6.539062 21.683594 6.0625 C 22.445312 5.457031 21.613281 4.003906 21.410156 3.59375 Z M 3.074219 5.574219 C 3.074219 4.007812 4.894531 2.65625 7.542969 2.007812 L 3.179688 6.199219 C 3.113281 5.996094 3.074219 5.789062 3.074219 5.574219 Z M 3.851562 7.289062 C 3.820312 7.261719 3.792969 7.226562 3.761719 7.191406 L 9.5 1.683594 C 9.574219 1.675781 9.644531 1.664062 9.71875 1.65625 C 10.15625 1.617188 10.605469 1.597656 11.0625 1.597656 C 11.355469 1.597656 11.640625 1.613281 11.925781 1.628906 L 5.066406 8.207031 C 4.578125 7.929688 4.167969 7.625 3.851562 7.289062 Z M 8.054688 9.265625 C 7.382812 9.128906 6.761719 8.949219 6.199219 8.734375 C 6.183594 8.726562 6.171875 8.722656 6.160156 8.71875 L 13.394531 1.769531 C 13.414062 1.773438 13.429688 1.773438 13.445312 1.777344 C 14.136719 1.886719 14.785156 2.042969 15.378906 2.234375 C 15.386719 2.234375 15.394531 2.238281 15.398438 2.242188 L 8.078125 9.265625 C 8.070312 9.265625 8.0625 9.265625 8.054688 9.265625 Z M 11.867188 9.53125 C 11.605469 9.550781 11.332031 9.554688 11.0625 9.554688 C 10.519531 9.554688 9.988281 9.527344 9.476562 9.472656 L 16.542969 2.691406 C 17.125 2.960938 17.625 3.277344 18.019531 3.628906 C 18.050781 3.65625 18.078125 3.683594 18.109375 3.710938 L 12.054688 9.519531 C 11.992188 9.523438 11.929688 9.53125 11.867188 9.53125 Z M 13.921875 9.289062 L 18.804688 4.605469 C 18.960938 4.914062 19.046875 5.242188 19.046875 5.574219 C 19.046875 7.273438 16.921875 8.71875 13.921875 9.289062 Z M 13.921875 9.289062 "/>
<path style=" stroke:none;fill-rule:nonzero;fill:rgb(0%,0%,0%);fill-opacity:1;" d="M 16.230469 14.625 C 15.667969 14.96875 15.054688 15.257812 14.402344 15.484375 L 15.148438 17.355469 L 6.851562 17.355469 L 7.617188 15.433594 C 6.945312 15.265625 6.316406 15.027344 5.730469 14.738281 L 3.835938 20.351562 C 3.660156 20.824219 3.875 21.335938 4.3125 21.5 C 4.75 21.660156 5.246094 21.410156 5.417969 20.9375 L 6.269531 18.804688 L 15.730469 18.804688 L 16.582031 20.9375 C 16.753906 21.410156 17.25 21.660156 17.6875 21.5 C 18.121094 21.335938 18.339844 20.824219 18.164062 20.351562 Z M 16.230469 14.625 "/>
</g>
</svg>
