<?xml version="1.0" encoding="UTF-8"?>
<svg xmlns="http://www.w3.org/2000/svg" xmlns:xlink="http://www.w3.org/1999/xlink" width="21px" height="15px" viewBox="0 0 21 15" version="1.1">
<g id="surface1">
<path style=" stroke:none;fill-rule:evenodd;fill:rgb(0%,0%,0%);fill-opacity:1;" d="M 8.035156 0 C 8.957031 0 9.703125 0.757812 9.703125 1.695312 C 9.703125 2.632812 8.957031 3.390625 8.035156 3.390625 C 7.113281 3.390625 6.367188 2.632812 6.367188 1.695312 C 6.367188 0.757812 7.113281 0 8.035156 0 Z M 3.230469 4.445312 C 3.878906 4.445312 4.40625 4.980469 4.40625 5.644531 C 4.40625 6.304688 3.878906 6.839844 3.230469 6.839844 C 2.578125 6.839844 2.050781 6.304688 2.050781 5.644531 C 2.050781 4.984375 2.578125 4.445312 3.230469 4.445312 Z M 1.628906 7.417969 C 1.71875 7.292969 1.851562 7.21875 1.988281 7.203125 L 1.988281 7.199219 C 2.804688 7.070312 3.617188 7.074219 4.429688 7.199219 C 4.574219 7.207031 4.714844 7.277344 4.808594 7.402344 C 5.34375 8.152344 5.570312 8.628906 5.910156 9.34375 C 6.023438 9.578125 6.144531 9.835938 6.242188 10.035156 C 6.367188 10.285156 6.265625 10.585938 6.023438 10.710938 C 5.78125 10.832031 5.484375 10.730469 5.363281 10.484375 C 5.207031 10.164062 5.109375 9.964844 5.023438 9.78125 C 4.820312 9.351562 4.65625 9.011719 4.4375 8.644531 L 4.4375 14.339844 C 4.4375 14.621094 4.199219 14.855469 3.910156 14.855469 C 3.617188 14.855469 3.378906 14.621094 3.378906 14.339844 L 3.378906 11.546875 L 3.050781 11.546875 L 3.050781 14.339844 C 3.050781 14.625 2.8125 14.855469 2.519531 14.855469 C 2.230469 14.855469 1.988281 14.625 1.988281 14.339844 L 1.988281 8.816406 C 1.773438 9.191406 1.605469 9.539062 1.394531 9.980469 C 1.300781 10.179688 1.199219 10.394531 1.03125 10.738281 C 0.898438 11.003906 0.582031 11.113281 0.320312 10.980469 C 0.0585938 10.847656 -0.0507812 10.523438 0.0820312 10.257812 C 0.1875 10.039062 0.320312 9.761719 0.4375 9.511719 C 0.804688 8.738281 1.046875 8.222656 1.628906 7.417969 Z M 17.773438 2.710938 C 18.421875 2.710938 18.953125 3.246094 18.953125 3.910156 C 18.953125 4.570312 18.425781 5.105469 17.773438 5.105469 C 17.121094 5.105469 16.597656 4.570312 16.597656 3.910156 C 16.597656 3.246094 17.121094 2.710938 17.773438 2.710938 Z M 18.976562 5.535156 C 19.121094 5.542969 19.257812 5.613281 19.351562 5.742188 C 19.890625 6.488281 20.25 7.457031 20.589844 8.171875 C 20.699219 8.40625 20.820312 8.660156 20.921875 8.867188 C 21.042969 9.113281 20.945312 9.414062 20.699219 9.539062 C 20.457031 9.660156 20.160156 9.5625 20.039062 9.316406 C 19.882812 8.996094 19.785156 8.792969 19.699219 8.609375 C 19.484375 8.160156 19.257812 7.582031 18.980469 7.046875 L 18.980469 7.472656 L 19.808594 11.191406 L 18.980469 11.191406 L 18.980469 14.308594 C 18.980469 14.59375 18.742188 14.824219 18.449219 14.824219 C 18.160156 14.824219 17.921875 14.59375 17.921875 14.308594 L 17.921875 11.191406 L 17.59375 11.191406 L 17.59375 14.308594 C 17.59375 14.59375 17.351562 14.824219 17.0625 14.824219 C 16.769531 14.824219 16.53125 14.59375 16.53125 14.308594 L 16.53125 11.191406 L 15.78125 11.191406 L 16.53125 7.539062 L 16.53125 7.214844 C 16.425781 7.441406 16.34375 7.664062 16.175781 8.023438 C 16.082031 8.21875 16.046875 8.316406 15.875 8.660156 C 15.746094 8.925781 15.425781 9.035156 15.164062 8.902344 C 14.902344 8.769531 14.796875 8.445312 14.925781 8.179688 C 15.035156 7.960938 15.097656 7.804688 15.214844 7.554688 C 15.582031 6.78125 15.59375 6.5625 16.171875 5.757812 C 16.261719 5.632812 16.390625 5.558594 16.53125 5.539062 L 16.53125 5.535156 C 17.3125 5.394531 18.125 5.394531 18.976562 5.535156 Z M 12.683594 0 C 13.605469 0 14.351562 0.757812 14.351562 1.695312 C 14.351562 2.632812 13.605469 3.390625 12.683594 3.390625 C 11.761719 3.390625 11.015625 2.632812 11.015625 1.695312 C 11.015625 0.757812 11.761719 0 12.683594 0 Z M 12.910156 11.8125 L 12.910156 14.273438 C 12.910156 14.671875 13.257812 15 13.683594 15 C 14.105469 15 14.453125 14.675781 14.453125 14.273438 L 14.453125 11.8125 L 15.550781 11.8125 L 15.007812 9.191406 C 14.800781 9.082031 14.65625 8.902344 14.589844 8.691406 C 14.519531 8.480469 14.527344 8.242188 14.632812 8.027344 C 14.667969 7.960938 14.695312 7.898438 14.726562 7.835938 L 14.398438 6.253906 L 14.398438 6.113281 C 14.625 6.492188 14.804688 6.847656 15 7.242188 C 15.058594 7.113281 15.109375 6.996094 15.152344 6.886719 C 15.324219 6.492188 15.445312 6.214844 15.816406 5.683594 C 15.582031 5.261719 15.3125 4.832031 14.9375 4.308594 C 14.800781 4.125 14.601562 4.023438 14.390625 4.011719 C 13.226562 3.796875 12.113281 3.804688 11.050781 4.015625 L 11.050781 4.019531 C 10.882812 4.035156 10.71875 4.105469 10.597656 4.238281 C 10.945312 4.730469 11.203125 5.148438 11.429688 5.558594 C 11.675781 6 11.882812 6.441406 12.132812 6.96875 C 12.210938 7.136719 12.296875 7.316406 12.378906 7.488281 C 12.472656 7.683594 12.558594 7.855469 12.613281 7.972656 C 12.734375 8.21875 12.746094 8.492188 12.667969 8.730469 C 12.589844 8.972656 12.417969 9.183594 12.179688 9.308594 C 11.9375 9.429688 11.667969 9.441406 11.429688 9.363281 C 11.195312 9.28125 10.988281 9.109375 10.867188 8.863281 C 10.765625 8.664062 10.316406 7.726562 10.25 7.585938 L 9.964844 11.8125 L 11 11.8125 L 11 14.277344 C 11 14.675781 11.347656 15 11.769531 15 C 12.195312 15 12.542969 14.675781 12.542969 14.277344 L 12.542969 11.8125 Z M 8.210938 10.128906 L 8.210938 14.273438 C 8.210938 14.671875 8.558594 15 8.980469 15 C 9.40625 15 9.753906 14.675781 9.753906 14.273438 L 9.753906 6.0625 C 10.074219 6.597656 10.304688 7.09375 10.605469 7.71875 C 10.730469 7.984375 10.867188 8.277344 11.097656 8.746094 C 11.277344 9.105469 11.707031 9.25 12.0625 9.070312 C 12.414062 8.890625 12.558594 8.453125 12.382812 8.089844 C 12.238281 7.796875 12.058594 7.425781 11.898438 7.085938 C 11.40625 6.042969 11.074219 5.34375 10.289062 4.257812 C 10.15625 4.074219 9.957031 3.972656 9.75 3.960938 C 9.171875 3.820312 6.273438 3.550781 5.765625 4.257812 C 5.046875 5.257812 4.707031 5.929688 4.273438 6.839844 C 4.339844 6.847656 4.40625 6.855469 4.472656 6.867188 C 4.585938 6.875 4.695312 6.910156 4.796875 6.964844 C 4.902344 7.023438 4.996094 7.105469 5.070312 7.207031 C 5.210938 7.402344 5.332031 7.582031 5.4375 7.75 L 5.449219 7.722656 C 5.78125 7.027344 6.03125 6.5 6.40625 5.894531 L 6.40625 9.625 C 6.457031 9.726562 6.503906 9.820312 6.535156 9.894531 C 6.636719 10.097656 6.648438 10.324219 6.582031 10.527344 C 6.546875 10.640625 6.488281 10.742188 6.40625 10.828125 L 6.40625 14.277344 C 6.40625 14.675781 6.753906 15 7.175781 15 C 7.601562 15 7.949219 14.675781 7.949219 14.277344 L 7.949219 10.128906 Z M 8.210938 10.128906 "/>
</g>
</svg>
