<?xml version="1.0" encoding="UTF-8"?>
<svg xmlns="http://www.w3.org/2000/svg" xmlns:xlink="http://www.w3.org/1999/xlink" width="21px" height="21px" viewBox="0 0 21 21" version="1.1">
<g id="surface1">
<path style=" stroke:none;fill-rule:nonzero;fill:rgb(0%,0%,0%);fill-opacity:1;" d="M 18.199219 11.199219 C 18.199219 15.835938 15.132812 19.601562 10.5 19.601562 C 5.867188 19.601562 2.800781 15.835938 2.800781 11.199219 C 5.96875 11.226562 8.777344 13.253906 9.800781 16.253906 L 9.800781 9.800781 L 6.300781 9.800781 C 5.140625 9.800781 4.199219 8.859375 4.199219 7.699219 L 4.199219 3.5 C 4.199219 3.113281 4.511719 2.800781 4.898438 2.800781 C 5.121094 2.800781 5.328125 2.902344 5.460938 3.078125 L 7.601562 5.878906 L 9.910156 1.679688 C 10.121094 1.355469 10.554688 1.261719 10.878906 1.472656 C 10.964844 1.527344 11.035156 1.597656 11.089844 1.679688 L 13.398438 5.878906 L 15.539062 3.078125 C 15.773438 2.769531 16.210938 2.707031 16.519531 2.941406 C 16.695312 3.070312 16.800781 3.28125 16.800781 3.5 L 16.800781 7.699219 C 16.800781 8.859375 15.859375 9.800781 14.699219 9.800781 L 11.199219 9.800781 L 11.199219 16.253906 C 12.222656 13.253906 15.03125 11.226562 18.199219 11.199219 Z M 18.199219 11.199219 "/>
</g>
</svg>
