<?xml version="1.0" encoding="UTF-8"?>
<svg xmlns="http://www.w3.org/2000/svg" xmlns:xlink="http://www.w3.org/1999/xlink" width="21px" height="21px" viewBox="0 0 21 21" version="1.1">
<g id="surface1">
<path style=" stroke:none;fill-rule:nonzero;fill:rgb(0%,0%,0%);fill-opacity:1;" d="M 4.199219 0.839844 C 3.96875 0.839844 3.78125 1.027344 3.78125 1.261719 L 3.78125 2.726562 L 1.015625 4.699219 C 0.90625 4.773438 0.839844 4.90625 0.839844 5.039062 L 0.839844 6.71875 C 0.839844 6.949219 1.027344 7.140625 1.261719 7.140625 L 10.5 7.140625 C 10.730469 7.140625 10.921875 6.949219 10.921875 6.71875 L 10.921875 5.039062 C 10.921875 4.90625 10.851562 4.773438 10.742188 4.699219 L 7.980469 2.726562 L 7.980469 1.261719 C 7.980469 1.027344 7.789062 0.839844 7.558594 0.839844 Z M 2.933594 9.238281 C 2.703125 9.238281 2.515625 9.429688 2.515625 9.660156 L 2.515625 10.078125 L 0.839844 10.078125 C 0.609375 10.078125 0.421875 10.269531 0.421875 10.5 L 0.421875 19.738281 C 0.421875 19.972656 0.609375 20.160156 0.839844 20.160156 L 10.839844 20.160156 C 11.105469 20.160156 11.316406 19.945312 11.316406 19.679688 L 11.316406 10.535156 C 11.316406 10.285156 11.113281 10.078125 10.863281 10.078125 L 9.222656 10.078125 L 9.222656 9.714844 C 9.222656 9.453125 9.007812 9.238281 8.746094 9.238281 Z M 12.636719 10.078125 C 12.609375 10.078125 12.429688 10.078125 12.296875 10.222656 C 12.191406 10.332031 12.183594 10.460938 12.179688 10.5 L 12.179688 13.441406 L 20.578125 13.441406 L 20.578125 10.5 C 20.578125 10.269531 20.390625 10.078125 20.160156 10.078125 Z M 2.515625 11.761719 L 9.222656 11.761719 C 9.453125 11.761719 9.640625 11.949219 9.640625 12.179688 L 9.640625 18.058594 C 9.640625 18.289062 9.453125 18.480469 9.222656 18.480469 L 2.515625 18.480469 C 2.285156 18.480469 2.097656 18.289062 2.097656 18.058594 L 2.097656 12.179688 C 2.097656 11.949219 2.285156 11.761719 2.515625 11.761719 Z M 13.832031 11.761719 L 18.863281 11.761719 C 19.09375 11.761719 19.28125 11.949219 19.28125 12.179688 C 19.28125 12.410156 19.09375 12.601562 18.863281 12.601562 L 13.832031 12.601562 C 13.601562 12.601562 13.414062 12.410156 13.414062 12.179688 C 13.414062 11.949219 13.601562 11.761719 13.832031 11.761719 Z M 2.933594 12.601562 L 2.933594 17.640625 L 8.804688 17.640625 L 8.804688 12.601562 Z M 12.179688 14.28125 L 12.179688 19.738281 C 12.179688 19.773438 12.1875 19.910156 12.292969 20.023438 C 12.421875 20.164062 12.597656 20.160156 12.625 20.160156 L 20.160156 20.160156 C 20.390625 20.160156 20.578125 19.972656 20.578125 19.738281 L 20.578125 14.28125 Z M 13.832031 15.539062 C 14.0625 15.539062 14.25 15.730469 14.25 15.960938 L 14.25 18.058594 C 14.25 18.289062 14.0625 18.480469 13.832031 18.480469 C 13.601562 18.480469 13.414062 18.289062 13.414062 18.058594 L 13.414062 15.960938 C 13.414062 15.730469 13.601562 15.539062 13.832031 15.539062 Z M 13.832031 15.539062 "/>
</g>
</svg>
