<?xml version="1.0" encoding="UTF-8"?>
<svg xmlns="http://www.w3.org/2000/svg" xmlns:xlink="http://www.w3.org/1999/xlink" width="21px" height="21px" viewBox="0 0 21 21" version="1.1">
<g id="surface1">
<path style=" stroke:none;fill-rule:evenodd;fill:rgb(5.882353%,5.882353%,5.882353%);fill-opacity:1;" d="M 9.625 5.25 C 8.175781 5.25 7 6.425781 7 7.875 L 7 14.875 C 7 15.359375 7.390625 15.75 7.875 15.75 C 8.359375 15.75 8.75 15.359375 8.75 14.875 L 8.75 12.25 L 10.503906 12.25 C 10.6875 12.25 10.871094 12.226562 11.054688 12.195312 C 11.355469 12.148438 11.773438 12.042969 12.203125 11.828125 C 12.636719 11.613281 13.09375 11.277344 13.441406 10.753906 C 13.796875 10.222656 14 9.558594 14 8.75 C 14 7.941406 13.796875 7.277344 13.441406 6.746094 C 13.09375 6.222656 12.636719 5.886719 12.203125 5.671875 C 11.773438 5.457031 11.355469 5.351562 11.054688 5.304688 C 10.871094 5.273438 10.683594 5.25 10.5 5.25 Z M 8.75 10.5 L 8.75 7.875 C 8.75 7.390625 9.140625 7 9.625 7 L 10.5 7 C 10.816406 7.011719 11.140625 7.09375 11.421875 7.234375 C 11.644531 7.347656 11.84375 7.503906 11.988281 7.71875 C 12.125 7.925781 12.25 8.246094 12.25 8.75 C 12.25 9.253906 12.125 9.570312 11.988281 9.78125 C 11.84375 9.996094 11.644531 10.152344 11.421875 10.265625 C 11.140625 10.40625 10.816406 10.488281 10.5 10.5 Z M 8.75 10.5 "/>
<path style=" stroke:none;fill-rule:evenodd;fill:rgb(5.882353%,5.882353%,5.882353%);fill-opacity:1;" d="M 17.5 0.875 C 18.949219 0.875 20.125 2.050781 20.125 3.5 L 20.125 17.5 C 20.125 18.949219 18.949219 20.125 17.5 20.125 L 3.5 20.125 C 2.050781 20.125 0.875 18.949219 0.875 17.5 L 0.875 3.5 C 0.875 2.050781 2.050781 0.875 3.5 0.875 Z M 17.5 2.625 C 17.984375 2.625 18.375 3.015625 18.375 3.5 L 18.375 17.5 C 18.375 17.984375 17.984375 18.375 17.5 18.375 L 3.5 18.375 C 3.015625 18.375 2.625 17.984375 2.625 17.5 L 2.625 3.5 C 2.625 3.015625 3.015625 2.625 3.5 2.625 Z M 17.5 2.625 "/>
</g>
</svg>
