<?xml version="1.0" encoding="UTF-8"?>
<svg xmlns="http://www.w3.org/2000/svg" xmlns:xlink="http://www.w3.org/1999/xlink" width="21px" height="21px" viewBox="0 0 21 21" version="1.1">
<g id="surface1">
<path style=" stroke:none;fill-rule:nonzero;fill:rgb(0%,0%,0%);fill-opacity:1;" d="M 5.535156 12.726562 L 13.859375 12.726562 C 14.207031 12.726562 14.488281 12.445312 14.488281 12.097656 L 14.488281 11.496094 L 4.90625 11.496094 L 4.90625 12.097656 C 4.90625 12.445312 5.1875 12.726562 5.535156 12.726562 Z M 5.535156 12.726562 "/>
<path style=" stroke:none;fill-rule:nonzero;fill:rgb(0%,0%,0%);fill-opacity:1;" d="M 10.867188 7.570312 L 10.867188 7.070312 C 10.867188 6.8125 10.660156 6.605469 10.402344 6.605469 L 8.992188 6.605469 C 8.738281 6.605469 8.527344 6.8125 8.527344 7.070312 L 8.527344 7.570312 C 6.769531 8 5.378906 9.375 4.925781 11.125 L 14.46875 11.125 C 14.019531 9.375 12.628906 8 10.867188 7.570312 Z M 10.867188 7.570312 "/>
<path style=" stroke:none;fill-rule:nonzero;fill:rgb(0%,0%,0%);fill-opacity:1;" d="M 2.902344 20.464844 C 2.902344 20.761719 3.144531 21 3.4375 21 C 3.730469 21 3.972656 20.761719 3.972656 20.464844 C 3.972656 20.171875 3.4375 19.515625 3.4375 19.515625 C 3.4375 19.515625 2.902344 20.171875 2.902344 20.464844 Z M 2.902344 20.464844 "/>
<path style=" stroke:none;fill-rule:nonzero;fill:rgb(0%,0%,0%);fill-opacity:1;" d="M 6.035156 20.464844 C 6.035156 20.761719 6.273438 21 6.566406 21 C 6.863281 21 7.101562 20.761719 7.101562 20.464844 C 7.101562 20.171875 6.566406 19.515625 6.566406 19.515625 C 6.566406 19.515625 6.035156 20.171875 6.035156 20.464844 Z M 6.035156 20.464844 "/>
<path style=" stroke:none;fill-rule:nonzero;fill:rgb(0%,0%,0%);fill-opacity:1;" d="M 9.164062 20.464844 C 9.164062 20.761719 9.402344 21 9.699219 21 C 9.992188 21 10.230469 20.761719 10.230469 20.464844 C 10.230469 20.171875 9.699219 19.515625 9.699219 19.515625 C 9.699219 19.515625 9.164062 20.171875 9.164062 20.464844 Z M 9.164062 20.464844 "/>
<path style=" stroke:none;fill-rule:nonzero;fill:rgb(0%,0%,0%);fill-opacity:1;" d="M 12.292969 20.464844 C 12.292969 20.761719 12.535156 21 12.828125 21 C 13.121094 21 13.363281 20.761719 13.363281 20.464844 C 13.363281 20.171875 12.828125 19.515625 12.828125 19.515625 C 12.828125 19.515625 12.292969 20.171875 12.292969 20.464844 Z M 12.292969 20.464844 "/>
<path style=" stroke:none;fill-rule:nonzero;fill:rgb(0%,0%,0%);fill-opacity:1;" d="M 15.425781 20.464844 C 15.425781 20.761719 15.664062 21 15.957031 21 C 16.253906 21 16.492188 20.761719 16.492188 20.464844 C 16.492188 20.171875 15.957031 19.515625 15.957031 19.515625 C 15.957031 19.515625 15.425781 20.171875 15.425781 20.464844 Z M 15.425781 20.464844 "/>
<path style=" stroke:none;fill-rule:nonzero;fill:rgb(0%,0%,0%);fill-opacity:1;" d="M 4.46875 17.644531 C 4.46875 17.9375 4.707031 18.179688 5.003906 18.179688 C 5.296875 18.179688 5.535156 17.9375 5.535156 17.644531 C 5.535156 17.351562 5.003906 16.695312 5.003906 16.695312 C 5.003906 16.695312 4.46875 17.351562 4.46875 17.644531 Z M 4.46875 17.644531 "/>
<path style=" stroke:none;fill-rule:nonzero;fill:rgb(0%,0%,0%);fill-opacity:1;" d="M 7.597656 17.644531 C 7.597656 17.9375 7.839844 18.179688 8.132812 18.179688 C 8.425781 18.179688 8.667969 17.9375 8.667969 17.644531 C 8.667969 17.351562 8.132812 16.695312 8.132812 16.695312 C 8.132812 16.695312 7.597656 17.351562 7.597656 17.644531 Z M 7.597656 17.644531 "/>
<path style=" stroke:none;fill-rule:nonzero;fill:rgb(0%,0%,0%);fill-opacity:1;" d="M 10.730469 17.644531 C 10.730469 17.9375 10.96875 18.179688 11.261719 18.179688 C 11.558594 18.179688 11.796875 17.9375 11.796875 17.644531 C 11.796875 17.351562 11.261719 16.695312 11.261719 16.695312 C 11.261719 16.695312 10.730469 17.351562 10.730469 17.644531 Z M 10.730469 17.644531 "/>
<path style=" stroke:none;fill-rule:nonzero;fill:rgb(0%,0%,0%);fill-opacity:1;" d="M 13.859375 17.644531 C 13.859375 17.9375 14.097656 18.179688 14.394531 18.179688 C 14.6875 18.179688 14.925781 17.9375 14.925781 17.644531 C 14.925781 17.351562 14.394531 16.695312 14.394531 16.695312 C 14.394531 16.695312 13.859375 17.351562 13.859375 17.644531 Z M 13.859375 17.644531 "/>
<path style=" stroke:none;fill-rule:nonzero;fill:rgb(0%,0%,0%);fill-opacity:1;" d="M 6.035156 15.105469 C 6.035156 15.398438 6.273438 15.636719 6.566406 15.636719 C 6.863281 15.636719 7.101562 15.398438 7.101562 15.105469 C 7.101562 14.808594 6.566406 14.152344 6.566406 14.152344 C 6.566406 14.152344 6.035156 14.808594 6.035156 15.105469 Z M 6.035156 15.105469 "/>
<path style=" stroke:none;fill-rule:nonzero;fill:rgb(0%,0%,0%);fill-opacity:1;" d="M 9.164062 15.105469 C 9.164062 15.398438 9.402344 15.636719 9.699219 15.636719 C 9.992188 15.636719 10.230469 15.398438 10.230469 15.105469 C 10.230469 14.808594 9.699219 14.152344 9.699219 14.152344 C 9.699219 14.152344 9.164062 14.808594 9.164062 15.105469 Z M 9.164062 15.105469 "/>
<path style=" stroke:none;fill-rule:nonzero;fill:rgb(0%,0%,0%);fill-opacity:1;" d="M 12.292969 15.105469 C 12.292969 15.398438 12.535156 15.636719 12.828125 15.636719 C 13.121094 15.636719 13.363281 15.398438 13.363281 15.105469 C 13.363281 14.808594 12.828125 14.152344 12.828125 14.152344 C 12.828125 14.152344 12.292969 14.808594 12.292969 15.105469 Z M 12.292969 15.105469 "/>
<path style=" stroke:none;fill-rule:nonzero;fill:rgb(0%,0%,0%);fill-opacity:1;" d="M 16.433594 0.746094 L 16.433594 3.699219 C 16.839844 4.15625 17.433594 4.445312 18.097656 4.445312 L 18.097656 0 C 17.433594 0 16.839844 0.289062 16.433594 0.746094 Z M 16.433594 0.746094 "/>
<path style=" stroke:none;fill-rule:nonzero;fill:rgb(0%,0%,0%);fill-opacity:1;" d="M 10.386719 5.59375 C 10.386719 5.207031 10.464844 4.839844 10.605469 4.507812 C 10.820312 4.007812 11.175781 3.578125 11.621094 3.277344 C 11.84375 3.128906 12.089844 3.007812 12.351562 2.925781 C 12.613281 2.84375 12.890625 2.800781 13.183594 2.800781 L 15.867188 2.800781 L 15.867188 1.445312 L 13.183594 1.445312 C 12.609375 1.445312 12.0625 1.5625 11.566406 1.773438 C 10.820312 2.089844 10.191406 2.613281 9.742188 3.273438 C 9.519531 3.605469 9.339844 3.972656 9.21875 4.363281 C 9.097656 4.75 9.035156 5.167969 9.035156 5.59375 L 9.035156 6.066406 L 10.386719 6.066406 Z M 10.386719 5.59375 "/>
</g>
</svg>
