<?xml version="1.0" encoding="UTF-8"?>
<svg xmlns="http://www.w3.org/2000/svg" xmlns:xlink="http://www.w3.org/1999/xlink" width="21px" height="21px" viewBox="0 0 21 21" version="1.1">
<g id="surface1">
<path style=" stroke:none;fill-rule:nonzero;fill:rgb(0%,0%,0%);fill-opacity:1;" d="M 0 3.78125 L 0 17.21875 L 21 17.21875 L 21 3.78125 Z M 10.5 7.140625 C 10.753906 7.140625 10.921875 7.308594 10.921875 7.558594 L 10.921875 10.921875 C 10.921875 11.171875 10.753906 11.339844 10.5 11.339844 C 10.246094 11.339844 10.078125 11.171875 10.078125 10.921875 L 10.078125 7.558594 C 10.078125 7.308594 10.246094 7.140625 10.5 7.140625 Z M 8.726562 7.664062 C 8.894531 7.632812 9.066406 7.683594 9.160156 7.808594 C 9.289062 8.019531 9.238281 8.273438 9.070312 8.398438 C 8.398438 8.902344 7.980469 9.660156 7.980469 10.5 C 7.980469 11.886719 9.113281 13.019531 10.5 13.019531 C 11.886719 13.019531 13.019531 11.886719 13.019531 10.5 C 13.019531 9.660156 12.601562 8.902344 11.929688 8.4375 C 11.71875 8.3125 11.671875 8.058594 11.839844 7.847656 C 11.964844 7.640625 12.21875 7.601562 12.429688 7.769531 C 13.3125 8.398438 13.859375 9.445312 13.859375 10.539062 C 13.859375 12.34375 12.347656 13.859375 10.5 13.859375 C 8.652344 13.859375 7.140625 12.347656 7.140625 10.5 C 7.140625 9.40625 7.6875 8.359375 8.570312 7.730469 C 8.625 7.699219 8.671875 7.675781 8.726562 7.664062 Z M 4.542969 18.058594 C 4.308594 18.082031 4.140625 18.289062 4.160156 18.519531 C 4.183594 18.75 4.390625 18.921875 4.621094 18.898438 L 16.378906 18.898438 C 16.53125 18.902344 16.671875 18.824219 16.75 18.691406 C 16.824219 18.558594 16.824219 18.398438 16.75 18.269531 C 16.671875 18.136719 16.53125 18.058594 16.378906 18.058594 L 4.621094 18.058594 C 4.605469 18.058594 4.59375 18.058594 4.582031 18.058594 C 4.566406 18.058594 4.554688 18.058594 4.542969 18.058594 Z M 4.542969 18.058594 "/>
</g>
</svg>
