<?xml version="1.0" encoding="UTF-8"?>
<svg xmlns="http://www.w3.org/2000/svg" xmlns:xlink="http://www.w3.org/1999/xlink" width="21px" height="16px" viewBox="0 0 20 16" version="1.1">
<g id="surface1">
<path style=" stroke:none;fill-rule:evenodd;fill:rgb(0%,0%,0%);fill-opacity:1;" d="M 2.667969 9.792969 C 2.859375 7.449219 3.246094 5.523438 4.847656 4.757812 C 5.578125 7.066406 5.25 9.296875 4.546875 11.738281 C 2.316406 12.066406 0.296875 12.816406 0.296875 14.308594 C 1.371094 14.617188 2.136719 14.1875 2.78125 13.300781 C 4.21875 14.605469 5.132812 15.003906 6.578125 13.222656 C 7.519531 14.945312 9.386719 14.542969 10.378906 13.277344 C 11.46875 14.761719 13.355469 14.878906 14.152344 13.035156 C 15.300781 14.886719 17.085938 14.613281 17.933594 13.148438 C 18.46875 13.851562 18.75 14.304688 19.65625 14.378906 C 19.058594 12.355469 16.921875 11.410156 14.171875 11.300781 C 13.753906 9.828125 13.566406 8.480469 14.007812 7.085938 C 15 7.554688 15.238281 8.746094 15.355469 10.191406 L 15.355469 10.195312 C 15.742188 9.191406 15.980469 8.277344 15.4375 7.242188 C 15.957031 7.296875 16.445312 7.621094 16.964844 8.121094 C 16.539062 7.15625 15.839844 6.425781 14.597656 6.589844 C 15.292969 6.105469 16.113281 6.1875 16.902344 6.378906 C 16.078125 5.472656 15.183594 5.089844 14.109375 6.121094 C 14.070312 5.496094 14.320312 4.949219 14.648438 4.429688 C 13.953125 4.71875 13.433594 5.035156 13.59375 6.355469 C 12.40625 5.304688 11.074219 5.75 10.609375 7.589844 C 11.480469 6.78125 12.410156 6.371094 13.398438 6.691406 C 11.667969 7.371094 11.203125 8.417969 11.933594 9.84375 C 12.453125 8.46875 12.996094 7.601562 13.605469 7.199219 C 13.273438 8.078125 12.988281 9.046875 13.320312 11.292969 C 12.25 11.316406 11.109375 11.449219 9.945312 11.6875 C 9.226562 11.539062 7.644531 11.460938 5.964844 11.585938 C 6.503906 7.941406 6.042969 6.371094 5.503906 4.949219 C 6.492188 5.601562 7.371094 7.003906 8.214844 9.230469 C 9.394531 6.925781 8.644531 5.226562 5.835938 4.125 C 7.441406 3.605469 8.945312 4.273438 10.363281 5.578125 C 9.605469 2.59375 7.449219 1.875 5.523438 3.578125 C 5.785156 1.441406 4.945312 0.925781 3.816406 0.457031 C 4.347656 1.300781 4.746094 2.183594 4.6875 3.199219 C 2.949219 1.527344 1.496094 2.144531 0.160156 3.617188 C 1.441406 3.304688 2.773438 3.171875 3.894531 3.957031 C 1.878906 3.691406 0.753906 4.878906 0.0585938 6.4375 C 0.898438 5.628906 1.695312 5.105469 2.535156 5.011719 C 1.652344 6.6875 2.042969 8.167969 2.671875 9.796875 Z M 10.660156 3.636719 C 10.625 3.695312 10.550781 3.714844 10.492188 3.683594 C 10.433594 3.648438 10.414062 3.570312 10.449219 3.507812 L 10.605469 3.226562 C 10.636719 3.164062 10.710938 3.144531 10.769531 3.179688 C 10.828125 3.214844 10.847656 3.292969 10.8125 3.351562 Z M 11.460938 0.84375 C 11.757812 0.84375 12.03125 0.972656 12.226562 1.175781 C 12.421875 1.382812 12.542969 1.667969 12.542969 1.980469 C 12.542969 2.292969 12.421875 2.578125 12.226562 2.78125 C 12.03125 2.988281 11.757812 3.113281 11.460938 3.113281 C 11.160156 3.113281 10.886719 2.988281 10.691406 2.78125 C 10.496094 2.578125 10.375 2.292969 10.375 1.980469 C 10.375 1.667969 10.496094 1.382812 10.691406 1.175781 C 10.890625 0.972656 11.160156 0.84375 11.460938 0.84375 Z M 12.945312 0.96875 C 13.003906 0.929688 13.078125 0.953125 13.113281 1.011719 C 13.144531 1.074219 13.125 1.152344 13.066406 1.1875 L 12.796875 1.347656 C 12.738281 1.382812 12.664062 1.363281 12.632812 1.300781 C 12.597656 1.242188 12.617188 1.164062 12.675781 1.128906 Z M 13.230469 1.878906 C 13.296875 1.878906 13.351562 1.9375 13.351562 2.007812 C 13.351562 2.078125 13.296875 2.132812 13.230469 2.132812 L 12.921875 2.132812 C 12.855469 2.132812 12.800781 2.078125 12.800781 2.007812 C 12.800781 1.9375 12.855469 1.878906 12.921875 1.878906 Z M 10.492188 0.425781 C 10.457031 0.367188 10.476562 0.289062 10.535156 0.253906 C 10.59375 0.21875 10.667969 0.238281 10.699219 0.300781 L 10.855469 0.582031 C 10.890625 0.644531 10.871094 0.722656 10.8125 0.753906 C 10.753906 0.792969 10.679688 0.769531 10.648438 0.710938 Z M 11.363281 0.128906 C 11.363281 0.0585938 11.417969 0 11.484375 0 C 11.550781 0 11.605469 0.0585938 11.605469 0.128906 L 11.605469 0.453125 C 11.605469 0.523438 11.550781 0.578125 11.484375 0.578125 C 11.417969 0.578125 11.363281 0.523438 11.363281 0.453125 Z M 12.261719 0.324219 C 12.296875 0.265625 12.367188 0.242188 12.425781 0.277344 C 12.484375 0.3125 12.503906 0.390625 12.472656 0.449219 L 12.316406 0.734375 C 12.28125 0.792969 12.210938 0.816406 12.152344 0.78125 C 12.09375 0.746094 12.074219 0.667969 12.105469 0.609375 Z M 13.042969 2.820312 C 13.101562 2.855469 13.121094 2.933594 13.085938 2.992188 C 13.054688 3.054688 12.980469 3.074219 12.921875 3.039062 L 12.652344 2.878906 C 12.59375 2.84375 12.574219 2.765625 12.605469 2.703125 C 12.640625 2.644531 12.714844 2.625 12.773438 2.65625 Z M 9.976562 2.996094 C 9.917969 3.03125 9.84375 3.011719 9.8125 2.949219 C 9.777344 2.886719 9.796875 2.808594 9.855469 2.777344 L 10.125 2.613281 C 10.183594 2.578125 10.257812 2.597656 10.289062 2.660156 C 10.324219 2.71875 10.304688 2.796875 10.246094 2.832031 Z M 9.6875 2.082031 C 9.621094 2.082031 9.566406 2.023438 9.566406 1.953125 C 9.566406 1.886719 9.621094 1.828125 9.6875 1.828125 L 10 1.828125 C 10.066406 1.828125 10.121094 1.886719 10.121094 1.953125 C 10.121094 2.023438 10.066406 2.082031 10 2.082031 Z M 9.878906 1.140625 C 9.820312 1.105469 9.800781 1.03125 9.832031 0.96875 C 9.867188 0.90625 9.941406 0.886719 10 0.921875 L 10.269531 1.085938 C 10.328125 1.121094 10.347656 1.195312 10.3125 1.257812 C 10.28125 1.316406 10.207031 1.339844 10.148438 1.304688 Z M 12.429688 3.535156 C 12.460938 3.597656 12.441406 3.675781 12.386719 3.707031 C 12.328125 3.742188 12.253906 3.722656 12.21875 3.660156 L 12.066406 3.378906 C 12.03125 3.316406 12.050781 3.242188 12.109375 3.207031 C 12.167969 3.171875 12.242188 3.191406 12.273438 3.253906 Z M 11.554688 3.832031 C 11.554688 3.902344 11.5 3.960938 11.433594 3.960938 C 11.367188 3.960938 11.3125 3.902344 11.3125 3.832031 L 11.3125 3.507812 C 11.3125 3.4375 11.367188 3.382812 11.433594 3.382812 C 11.5 3.382812 11.554688 3.4375 11.554688 3.507812 Z M 0.207031 15.179688 C 0.453125 15.234375 0.707031 15.261719 0.957031 15.253906 C 1.308594 15.246094 1.65625 15.171875 1.957031 15.042969 C 2.308594 14.890625 2.632812 14.644531 2.773438 14.265625 C 2.898438 14.628906 3.246094 14.898438 3.582031 15.042969 C 3.882812 15.171875 4.230469 15.246094 4.582031 15.253906 C 4.933594 15.265625 5.289062 15.210938 5.605469 15.09375 C 6.117188 14.90625 6.226562 14.660156 6.5625 14.246094 C 6.757812 14.679688 7.097656 14.9375 7.519531 15.09375 C 7.839844 15.210938 8.195312 15.261719 8.546875 15.253906 C 8.894531 15.246094 9.242188 15.171875 9.542969 15.042969 C 9.882812 14.898438 10.226562 14.628906 10.355469 14.265625 C 10.492188 14.644531 10.820312 14.890625 11.167969 15.042969 C 11.472656 15.171875 11.820312 15.246094 12.167969 15.253906 C 12.519531 15.265625 12.875 15.210938 13.195312 15.09375 C 13.703125 14.90625 13.8125 14.660156 14.152344 14.246094 C 14.488281 14.65625 14.597656 14.90625 15.109375 15.09375 C 15.425781 15.210938 15.78125 15.261719 16.132812 15.253906 C 16.484375 15.246094 16.832031 15.171875 17.132812 15.042969 C 17.484375 14.890625 17.8125 14.648438 17.949219 14.265625 C 18.074219 14.628906 18.421875 14.894531 18.757812 15.042969 C 19.058594 15.171875 19.40625 15.246094 19.757812 15.253906 C 19.820312 15.257812 19.878906 15.257812 19.941406 15.253906 L 19.941406 16 C 19.433594 16.011719 18.921875 15.921875 18.480469 15.730469 C 18.25 15.632812 18.070312 15.535156 17.910156 15.414062 C 17.691406 15.570312 17.472656 15.703125 17.40625 15.730469 C 16.632812 16.066406 15.652344 16.089844 14.863281 15.796875 C 14.601562 15.703125 14.363281 15.574219 14.152344 15.40625 C 13.9375 15.574219 13.695312 15.703125 13.4375 15.796875 C 12.648438 16.089844 11.664062 16.066406 10.890625 15.730469 C 10.824219 15.703125 10.609375 15.566406 10.390625 15.414062 C 10.226562 15.535156 10.046875 15.632812 9.820312 15.730469 C 9.046875 16.066406 8.0625 16.089844 7.273438 15.796875 C 7.042969 15.714844 6.820312 15.605469 6.621094 15.46875 C 6.355469 15.605469 6.046875 15.722656 5.847656 15.796875 C 5.058594 16.089844 4.074219 16.066406 3.304688 15.730469 C 3.074219 15.632812 2.894531 15.535156 2.734375 15.414062 C 2.515625 15.570312 2.296875 15.703125 2.230469 15.730469 C 1.621094 15.996094 0.878906 16.066406 0.207031 15.941406 Z M 0.207031 15.179688 "/>
</g>
</svg>
